<?xml version="1.0" ?><!DOCTYPE svg  PUBLIC '-//W3C//DTD SVG 1.1//EN'  'http://www.w3.org/Graphics/SVG/1.1/DTD/svg11.dtd'><svg height="100%" style="fill-rule:evenodd;clip-rule:evenodd;stroke-linejoin:round;stroke-miterlimit:1.41421;" version="1.1" viewBox="0 0 49 49" width="100%" xml:space="preserve" xmlns="http://www.w3.org/2000/svg" xmlns:serif="http://www.serif.com/" xmlns:xlink="http://www.w3.org/1999/xlink"><rect height="48" style="fill:none;" width="48" x="0.521" y="0.087"/><path d="M12.936,28.087c-0.405,0 -0.77,-0.243 -0.924,-0.617c-0.155,-0.374 -0.07,-0.804 0.216,-1.09c3.084,-3.084 9.46,-9.46 11.586,-11.586c0.391,-0.39 1.024,-0.39 1.414,0c2.126,2.126 8.503,8.502 11.586,11.586c0.286,0.286 0.372,0.716 0.217,1.09c-0.155,0.374 -0.519,0.617 -0.924,0.617c-2.355,0 -5.586,0 -5.586,0c0,0 0,6.633 0,10.036c0,1.085 -0.879,1.964 -1.964,1.964c-2.229,0 -5.843,0 -8.072,0c-1.084,0 -1.964,-0.879 -1.964,-1.964c0,-3.403 0,-10.036 0,-10.036c0,0 -3.23,0 -5.585,0Zm23.585,-20c0.531,0 1.039,0.211 1.415,0.586c0.375,0.375 0.585,0.884 0.585,1.414c0,0.531 -0.21,1.039 -0.585,1.414c-0.376,0.375 -0.884,0.586 -1.415,0.586c-5.154,0 -18.845,0 -24,0c-0.53,0 -1.039,-0.211 -1.414,-0.586c-0.375,-0.375 -0.586,-0.883 -0.586,-1.414c0,-0.53 0.211,-1.039 0.586,-1.414c0.375,-0.375 0.884,-0.586 1.414,-0.586c5.155,0 18.846,0 24,0Z" style="fill:#784fa0;"/></svg>